<svg width="23" height="23" viewBox="0 0 23 23" fill="none" xmlns="http://www.w3.org/2000/svg">
<path d="M20.3758 0.0032959H2.73556C1.40753 0.0032959 0.330078 1.08075 0.330078 2.40878V20.049C0.330078 21.377 1.40753 22.4545 2.73556 22.4545H20.3758C21.7038 22.4545 22.7812 21.377 22.7812 20.049V2.40878C22.7812 1.08075 21.7038 0.0032959 20.3758 0.0032959ZM14.2268 19.2321C13.8058 19.3073 13.6504 19.0467 13.6504 18.8312C13.6504 18.5606 13.6605 17.1774 13.6605 16.0599C13.6605 15.2781 13.3999 14.782 13.0942 14.5214C14.9484 14.3159 16.9029 14.0603 16.9029 10.858C16.9029 9.94596 16.5771 9.48992 16.0459 8.90358C16.1311 8.68809 16.4167 7.80107 15.9607 6.64844C15.2641 6.43295 13.6705 7.54549 13.6705 7.54549C13.009 7.36006 12.2923 7.26485 11.5857 7.26485C10.8791 7.26485 10.1625 7.36006 9.50098 7.54549C9.50098 7.54549 7.90735 6.43295 7.21076 6.64844C6.75472 7.79606 7.03536 8.68308 7.12557 8.90358C6.59436 9.48992 6.34378 9.94596 6.34378 10.858C6.34378 14.0453 8.21305 14.3159 10.0673 14.5214C9.82672 14.7369 9.61123 15.1077 9.53606 15.6389C9.05998 15.8544 7.8422 16.2253 7.11554 14.9423C6.6595 14.1505 5.83763 14.0854 5.83763 14.0854C5.02578 14.0754 5.78251 14.5966 5.78251 14.5966C6.32374 14.8471 6.70461 15.8093 6.70461 15.8093C7.19071 17.2977 9.51601 16.7966 9.51601 16.7966C9.51601 17.4932 9.52604 18.6257 9.52604 18.8312C9.52604 19.0467 9.3757 19.3073 8.94972 19.2321C5.64219 18.1246 3.32691 14.9774 3.32691 11.299C3.32691 6.69855 6.84493 3.20559 11.4454 3.20559C16.0459 3.20559 19.7744 6.69855 19.7744 11.299C19.7794 14.9774 17.5343 18.1296 14.2268 19.2321ZM9.31055 16.1701C9.21533 16.1902 9.12512 16.1501 9.1151 16.085C9.10508 16.0098 9.17023 15.9446 9.26544 15.9246C9.36066 15.9146 9.45087 15.9547 9.46089 16.0198C9.47592 16.085 9.41077 16.1501 9.31055 16.1701ZM8.83446 16.125C8.83446 16.1902 8.75929 16.2453 8.65906 16.2453C8.54881 16.2553 8.47364 16.2002 8.47364 16.125C8.47364 16.0599 8.54881 16.0048 8.64904 16.0048C8.74426 15.9947 8.83446 16.0499 8.83446 16.125ZM8.1479 16.0699C8.12785 16.1351 8.02762 16.1651 7.94243 16.1351C7.84721 16.115 7.78206 16.0398 7.80211 15.9747C7.82215 15.9095 7.92238 15.8795 8.00758 15.8995C8.10781 15.9296 8.17295 16.0048 8.1479 16.0699ZM7.53149 15.7993C7.48639 15.8544 7.39117 15.8444 7.316 15.7692C7.24083 15.7041 7.22078 15.6089 7.2709 15.5638C7.316 15.5086 7.41122 15.5187 7.48639 15.5938C7.55154 15.659 7.57659 15.7592 7.53149 15.7993ZM7.07545 15.3433C7.03035 15.3733 6.94515 15.3433 6.89003 15.2681C6.8349 15.1929 6.8349 15.1077 6.89003 15.0726C6.94515 15.0275 7.03035 15.0626 7.07545 15.1378C7.13058 15.213 7.13058 15.3032 7.07545 15.3433ZM6.74971 14.8571C6.70461 14.9023 6.62944 14.8772 6.57431 14.8271C6.51918 14.7619 6.50916 14.6868 6.55426 14.6517C6.59937 14.6066 6.67454 14.6316 6.72966 14.6818C6.78479 14.7469 6.79481 14.8221 6.74971 14.8571ZM6.41394 14.4863C6.3939 14.5314 6.32875 14.5414 6.27362 14.5064C6.20848 14.4763 6.17841 14.4212 6.19845 14.3761C6.2185 14.346 6.27362 14.331 6.33877 14.356C6.40392 14.3911 6.43399 14.4462 6.41394 14.4863Z" fill="black"/>
</svg>
