<svg width="31" height="31" viewBox="0 0 31 31" fill="none" xmlns="http://www.w3.org/2000/svg">
<path d="M15.512 0.859373H15.6254C18.3591 0.859373 20.9172 1.62527 23.1083 2.95841L23.0412 2.91968C25.3226 4.28655 27.1698 6.17944 28.466 8.44465L28.5038 8.51711C29.7718 10.7274 30.5205 13.3849 30.5205 16.2211C30.5205 22.9755 26.2736 28.7154 20.3673 30.7869L20.2612 30.8194C20.1844 30.8444 20.0966 30.8581 20.0064 30.8581C19.8088 30.8581 19.6259 30.7907 19.4784 30.6782L19.4808 30.6795C19.3248 30.5358 19.2272 30.3284 19.2272 30.0972C19.2272 30.091 19.2272 30.0847 19.2272 30.0797V30.081C19.2272 30.041 19.2305 29.5304 19.237 28.5492C19.2435 27.568 19.2467 26.6709 19.2467 25.8579C19.2553 25.7642 19.2601 25.6568 19.2601 25.5468C19.2601 24.5573 18.8663 23.6627 18.231 23.0167C18.9846 22.9405 19.665 22.8131 20.3258 22.6356L20.2332 22.6569C20.9318 22.457 21.5415 22.1908 22.1072 21.8548L22.0694 21.876C22.6889 21.5262 23.2132 21.0814 23.6448 20.5541L23.6521 20.5454C24.1057 19.9506 24.4605 19.2509 24.6763 18.49L24.6873 18.4463C24.9421 17.593 25.0885 16.6122 25.0885 15.5964C25.0885 15.5401 25.0885 15.4827 25.0872 15.4264V15.4352C25.0872 15.4077 25.0885 15.3765 25.0885 15.3452C25.0885 13.7859 24.5008 12.3678 23.5412 11.3096L23.5448 11.3133C23.7497 10.7636 23.8679 10.1289 23.8679 9.46543C23.8679 8.65455 23.6911 7.8874 23.3753 7.19897L23.3887 7.23145C23.2485 7.20397 23.0888 7.18772 22.9242 7.18772C22.5169 7.18772 22.1328 7.28518 21.7914 7.4576L21.8061 7.45135C21.1135 7.71373 20.5209 8.01109 19.9625 8.35844L20.0088 8.33095L19.2662 8.81073C18.142 8.48088 16.8508 8.29097 15.5168 8.29097C14.1829 8.29097 12.8917 8.48088 11.6675 8.83572L11.7662 8.81073C11.5581 8.66413 11.2814 8.4838 10.9359 8.26973C10.4811 8.00235 9.94337 7.74372 9.38492 7.52632L9.30444 7.49883C8.94719 7.30642 8.52408 7.19397 8.07416 7.19397C7.92296 7.19397 7.77421 7.20646 7.63033 7.23145L7.64618 7.22895C7.34379 7.88365 7.16699 8.65205 7.16699 9.46293C7.16699 10.1264 7.28526 10.7623 7.5023 11.3483L7.49011 11.3121C6.53294 12.3666 5.94645 13.7847 5.94645 15.344C5.94645 15.3752 5.94645 15.4077 5.94767 15.4389V15.4339C5.94645 15.4827 5.94645 15.5389 5.94645 15.5964C5.94645 16.6072 6.09277 17.5842 6.3659 18.5038L6.34761 18.4326C6.57806 19.236 6.928 19.9344 7.38403 20.5478L7.37305 20.5316C7.80469 21.0751 8.32656 21.5224 8.91792 21.8585L8.94475 21.8722C9.47149 22.1871 10.0824 22.4532 10.7249 22.6394L10.781 22.6531C11.3492 22.8093 12.0296 22.9368 12.7258 23.008L12.7819 23.013C12.2564 23.5477 11.9065 24.2624 11.826 25.0595L11.8248 25.0745C11.5724 25.2007 11.2785 25.3032 10.9725 25.3694L10.9469 25.3744C10.6347 25.4381 10.2775 25.4743 9.91044 25.4743C9.88362 25.4743 9.85679 25.4743 9.82997 25.4743H9.83363C9.35322 25.4643 8.91183 25.3044 8.54725 25.0395L8.55457 25.0445C8.1022 24.7209 7.73641 24.3011 7.48035 23.8126L7.47182 23.7939C7.23039 23.3741 6.91215 23.0267 6.53538 22.7606L6.52441 22.7531C6.25006 22.5419 5.92695 22.377 5.57822 22.2783L5.55871 22.2733L5.16853 22.2133C5.14049 22.2108 5.10757 22.2096 5.07464 22.2096C4.90394 22.2096 4.74177 22.2446 4.59424 22.3058L4.60277 22.302C4.49872 22.362 4.46621 22.4386 4.50523 22.5319C4.55278 22.6394 4.61131 22.7318 4.68203 22.8131L4.68081 22.8118C4.75519 22.9018 4.83932 22.9805 4.93077 23.0492L4.93442 23.0517L5.07099 23.1517C5.41605 23.3366 5.70015 23.594 5.91597 23.9051L5.92085 23.9126C6.15374 24.2087 6.35858 24.5435 6.52319 24.9021L6.53538 24.9321L6.73047 25.3919C6.89508 25.8941 7.19381 26.314 7.58399 26.6176L7.59009 26.6226C7.95588 26.9149 8.39727 27.1248 8.8789 27.2198L8.89841 27.2223C9.30079 27.3023 9.769 27.3522 10.247 27.3622H10.2555C10.3104 27.3647 10.3738 27.3647 10.4384 27.3647C10.7566 27.3647 11.0688 27.3385 11.3736 27.2873L11.3407 27.2923L11.7894 27.2123C11.7894 27.7196 11.7927 28.3101 11.7992 28.984C11.8057 29.6578 11.8089 30.0214 11.8089 30.0747V30.0922C11.8089 30.3234 11.7114 30.5308 11.5553 30.6745C11.4102 30.7857 11.2273 30.8531 11.0286 30.8531C10.9371 30.8531 10.8493 30.8394 10.7676 30.8131L10.7737 30.8144C4.76372 28.7041 0.520508 22.9642 0.520508 16.2086C0.520508 13.3749 1.26673 10.7199 2.57017 8.4384L2.53116 8.51087C3.86509 6.17319 5.71235 4.28031 7.92296 2.95216L7.99368 2.91343C10.1141 1.62152 12.6698 0.858124 15.3986 0.858124H15.5181H15.512V0.859373Z" fill="black"/>
</svg>
