<svg width="23" height="23" viewBox="0 0 23 23" fill="none" xmlns="http://www.w3.org/2000/svg">
<g clip-path="url(#clip0_146_101)">
<path d="M1.75706 22.8742C1.25817 22.8742 0.821647 22.6884 0.447481 22.3168C0.0733139 21.9451 -0.11377 21.5116 -0.11377 21.016V2.43412C-0.11377 1.9386 0.0733139 1.50502 0.447481 1.13339C0.821647 0.761747 1.25817 0.575928 1.75706 0.575928H10.4564V2.43412H1.75706V21.016H20.4654V12.3755H22.3362V21.016C22.3362 21.5116 22.1491 21.9451 21.775 22.3168C21.4008 22.6884 20.9643 22.8742 20.4654 22.8742H1.75706ZM8.05554 16.0918L6.74595 14.7601L19.1558 2.43412H12.3273V0.575928H22.3362V10.5173H20.4654V3.76583L8.05554 16.0918Z" fill="black"/>
</g>
<defs>
<clipPath id="clip0_146_101">
<rect width="22.45" height="22.45" fill="white" transform="translate(0 0.5)"/>
</clipPath>
</defs>
</svg>
