<svg width="153" height="156" viewBox="0 0 153 156" fill="none" xmlns="http://www.w3.org/2000/svg">
<path d="M49.89 4.82363C47.9432 9.03006 39.1967 34.231 39.3538 35.4543C39.3966 35.7879 37.8151 41.0779 35.7917 47.3289C33.754 53.4687 32.1724 58.7587 32.1867 58.8699C32.2438 59.3147 22.8565 88.3283 14.5804 112.791C9.43062 128.147 7.00221 133.885 5.55651 134.071C2.44269 134.471 0.264393 135.994 0.478588 137.662C0.592825 138.551 1.67937 139.09 2.90266 138.933C5.57165 138.59 5.78282 139.355 4.21552 144.756C0.972749 156.476 6.03423 156.279 13.3233 144.378L18.5514 135.793L26.892 134.722L35.1214 133.666L34.9397 137.532C34.6865 140.843 34.9946 141.482 37.1932 141.878C39.1552 142.191 40.3897 141.241 43.1721 137.38L46.7156 132.403L63.0805 131.319C93.4463 129.229 128.122 130.767 134.461 134.362C138.614 136.768 137.066 139.68 127.746 147.207C123.557 150.684 120.119 153.838 120.176 154.283C120.476 156.618 122.435 156.028 127.929 152.157C136.309 146.107 142.03 139.607 141.616 136.382C141.231 133.38 136.77 130.335 131.329 129.338C124.149 127.999 88.5583 127.256 61.6226 127.889C53.7381 128.11 49.0501 127.695 49.1868 126.999C49.5828 124.8 54.2159 121.266 58.2449 120.071C61.8291 118.932 62.3024 119.097 63.2981 121.57C63.9714 123.292 65.1008 124.164 66.5465 123.978C67.7698 123.821 75.9075 120.29 84.5155 116.019C93.1378 111.86 108.164 105.635 117.999 102.111C149.349 90.964 154.57 88.485 151.419 85.9505C150.415 85.1751 144.663 87.044 130.233 92.6273C111.511 100.005 68.7832 114.987 68.0303 114.405C67.9048 114.309 69.1272 109.743 70.917 104.313C74.3995 93.5793 74.5444 91.1868 71.7153 89.4023C69.2484 87.7974 68.7638 88.4248 56.768 106.808C50.1544 116.927 46.1803 122.072 44.6234 122.272C43.2889 122.443 42.5503 121.973 42.8809 121.026C43.0176 120.33 44.2227 114.75 45.3707 108.724C47.8034 95.977 47.2863 91.0696 43.2115 91.0276C39.9293 90.9969 33.5606 99.5015 22.6657 118.535C18.5181 125.85 14.5328 131.788 13.6431 131.902C12.8646 132.002 12.1688 131.865 12.1403 131.643C12.0546 130.975 16.2238 117.666 22.5847 98.5369C25.3377 90.0445 29.5783 77.2914 31.8354 70.2191C34.1893 63.0213 40.1115 45.7568 44.8765 31.8061C53.5261 6.73062 55.3669 -0.0621583 53.1427 0.223435C52.5867 0.294833 51.1613 2.39956 49.89 4.82363ZM40.4806 110.256C38.256 122.863 37.7601 124.284 35.1482 125.071C27.9798 127.348 23.0469 128.547 22.9755 127.991C22.7042 125.878 41.2361 95.0116 42.2543 95.8982C42.6307 96.189 41.7623 102.631 40.4806 110.256ZM65.585 106.807C63.8044 114.948 63.1402 115.938 60.0294 117.242C58.196 117.929 56.1259 118.534 55.5413 118.383C54.4975 118.178 65.9312 98.0579 67.1545 97.9008C67.3769 97.8723 66.7646 101.907 65.585 106.807ZM73.3886 115.639C73.4172 115.862 72.0714 116.826 70.2666 117.736C68.5587 118.52 67.016 118.831 66.9446 118.275C66.8447 117.497 67.8996 116.909 72.5673 115.406C73.0122 115.348 73.3601 115.417 73.3886 115.639ZM43.7489 126.906C41.8532 129.749 40.8237 129.655 41.5788 126.732C41.7839 125.689 42.796 124.767 43.7969 124.639C45.2426 124.453 45.1743 124.801 43.7489 126.906ZM36.5204 127.834C36.5918 128.39 34.9808 129.049 33.0902 129.292L29.4061 129.652L32.6281 128.334C34.4615 127.646 35.9613 127.001 36.1694 126.862C36.2806 126.847 36.4347 127.167 36.5204 127.834ZM11.8564 138.236C11.885 138.458 11.2065 139.336 10.4168 140.229C9.12815 141.638 9.00266 141.541 9.35878 139.913C9.71491 138.284 11.6993 137.012 11.8564 138.236Z" fill="black"/>
</svg>
